<svg xmlns="http://www.w3.org/2000/svg" viewBox="-45.00000244140625 227.44325219195946 892.0399780273438 347.15354384380714"><rect height="100%" width="100%" x="-45.00000244140625" y="227.44325219195946" fill="#ffffff"/> <svg xmlns="http://www.w3.org/2000/svg" xmlns:xlink="http://www.w3.org/1999/xlink" version="1.1" id="Layer_1" x="274.02760314941406" y="297.44325219195946" viewBox="254.10000610351562 275.4000244140625 491.8000183105469 249.24530029296875" xml:space="preserve" height="128.72262610393895" width="253.98992919921875" preserveAspectRatio="xMinYMin" enable-background="new 0 0 1000 800" style="overflow: visible;"><g id="Layer_3" style=""></g><path class="st0" d="M652.4,416.1c-7.1-12.2-21.4-15.5-35-16.3c-7.6-0.4-15.2,1.6-21.6,5.8c-13.1,8.4-37,23-47.6,24.2   c-43.8-94.8-119.1-106.5-119.1-106.5L263.9,335c144.7,26.9,174.3,126.9,174.3,126.9l30.3-2.2c-38.5,12.6-87.2,23.8-138.6,20.9   c-13.6-0.8-24.5-4.1-37.2-12.9c6.1,13.6,18.1,23.5,31.5,29.1c15.7,6.6,29.9,6.9,47.3,6.2c23-0.9,46.8-3.1,68.7,5.2   c31.5,11.4,65.4,19.7,99.1,15.2c29.3-3.9,58.1-20,73-45.4c7.4-12.7,9-29.1,20.8-39.1c10.9-9.6,26.2-10.6,40.1-11.2   C666.2,424.3,656.3,423.8,652.4,416.1z" style="fill: #AB2D2D; fill-opacity: 1;"></path><path class="st1" d="M426.4,309.5c66,15.2,99.1,66.5,99.1,66.5c-41.3-69.7-110.4-79.5-110.4-79.5l-161,11.5l32,11.6L426.4,309.5z" style="fill: #AB2D2D; fill-opacity: 1;"></path><path class="st0" d="M559.6,417.7c54.5-109.4,150.8-142.3,150.8-142.3L546,287.1c-23.7,7.7-48.2,39.9-48.2,39.9   C552.5,379.2,559.6,417.7,559.6,417.7z" style="fill: #AB2D2D; fill-opacity: 1;"></path><path class="st1" d="M581,395.8c0,0,70.6-71.2,164.9-108.2l-49.9,3.6C695.9,291.1,623.1,325.3,581,395.8z" style="fill: #AB2D2D; fill-opacity: 1;"></path></svg> <svg y="493.60679626464844" viewBox="1.4500000476837158 3.940000057220459 269.41998291015625 10.989999771118164" x="266.3100030517578" height="10.989999771118164" width="269.41998291015625" style="overflow: visible;"><g fill="#AB2D2D" fill-opacity="1" style=""><path d="M4.63 10.79L2.90 10.79L2.90 14.80L1.45 14.80L1.45 4.06L4.63 4.06Q5.65 4.06 6.40 4.29Q7.15 4.53 7.65 4.96Q8.14 5.40 8.39 6.02Q8.63 6.63 8.63 7.39L8.63 7.39Q8.63 8.14 8.37 8.76Q8.11 9.38 7.60 9.83Q7.09 10.28 6.34 10.53Q5.59 10.79 4.63 10.79L4.63 10.79ZM2.90 5.21L2.90 9.63L4.63 9.63Q5.25 9.63 5.73 9.46Q6.20 9.30 6.52 9.00Q6.85 8.71 7.01 8.29Q7.18 7.88 7.18 7.39L7.18 7.39Q7.18 6.36 6.54 5.78Q5.91 5.21 4.63 5.21L4.63 5.21L2.90 5.21ZM19.65 13.65L19.65 13.65Q20.31 13.65 20.84 13.43Q21.36 13.20 21.73 12.79Q22.09 12.39 22.28 11.83Q22.48 11.27 22.48 10.59L22.48 10.59L22.48 4.06L23.92 4.06L23.92 10.59Q23.92 11.52 23.63 12.31Q23.33 13.11 22.78 13.69Q22.23 14.27 21.43 14.60Q20.64 14.93 19.65 14.93L19.65 14.93Q18.66 14.93 17.86 14.60Q17.07 14.27 16.51 13.69Q15.96 13.11 15.66 12.31Q15.36 11.52 15.36 10.59L15.36 10.59L15.36 4.06L16.81 4.06L16.81 10.58Q16.81 11.26 17.00 11.82Q17.20 12.38 17.56 12.79Q17.92 13.19 18.45 13.42Q18.98 13.65 19.65 13.65ZM35.22 14.80L31.42 14.80L31.42 4.06L34.85 4.06Q35.84 4.06 36.55 4.25Q37.27 4.45 37.73 4.81Q38.19 5.17 38.41 5.69Q38.63 6.21 38.63 6.86L38.63 6.86Q38.63 7.26 38.51 7.63Q38.39 8.00 38.14 8.31Q37.88 8.63 37.51 8.87Q37.13 9.12 36.62 9.28L36.62 9.28Q37.80 9.51 38.39 10.13Q38.99 10.74 38.99 11.74L38.99 11.74Q38.99 12.43 38.74 12.99Q38.49 13.55 38.01 13.96Q37.52 14.36 36.82 14.58Q36.12 14.80 35.22 14.80L35.22 14.80ZM35.19 9.91L32.88 9.91L32.88 13.65L35.20 13.65Q35.82 13.65 36.27 13.51Q36.71 13.37 37.00 13.11Q37.29 12.85 37.43 12.49Q37.56 12.13 37.56 11.71L37.56 11.71Q37.56 10.88 36.97 10.39Q36.38 9.91 35.19 9.91L35.19 9.91ZM32.88 5.21L32.88 8.87L34.80 8.87Q35.41 8.87 35.86 8.74Q36.31 8.60 36.61 8.36Q36.90 8.12 37.05 7.78Q37.19 7.44 37.19 7.04L37.19 7.04Q37.19 6.09 36.62 5.65Q36.05 5.21 34.85 5.21L34.85 5.21L32.88 5.21ZM47.58 4.06L47.58 13.58L52.23 13.58L52.23 14.80L46.13 14.80L46.13 4.06L47.58 4.06ZM60.56 4.06L60.56 14.80L59.11 14.80L59.11 4.06L60.56 4.06ZM74.30 5.05L73.94 5.74Q73.88 5.85 73.80 5.91Q73.73 5.96 73.61 5.96L73.61 5.96Q73.48 5.96 73.31 5.84Q73.14 5.71 72.88 5.55Q72.62 5.40 72.26 5.27Q71.90 5.14 71.38 5.14L71.38 5.14Q70.89 5.14 70.52 5.28Q70.14 5.41 69.89 5.63Q69.64 5.86 69.51 6.16Q69.38 6.46 69.38 6.82L69.38 6.82Q69.38 7.27 69.61 7.56Q69.83 7.86 70.19 8.07Q70.55 8.28 71.02 8.43Q71.48 8.59 71.96 8.75Q72.44 8.92 72.91 9.12Q73.37 9.33 73.73 9.64Q74.09 9.96 74.32 10.42Q74.54 10.88 74.54 11.54L74.54 11.54Q74.54 12.25 74.30 12.87Q74.06 13.48 73.60 13.94Q73.13 14.40 72.46 14.66Q71.79 14.92 70.94 14.92L70.94 14.92Q69.89 14.92 69.04 14.55Q68.18 14.17 67.57 13.52L67.57 13.52L67.99 12.83Q68.05 12.75 68.14 12.69Q68.22 12.64 68.33 12.64L68.33 12.64Q68.48 12.64 68.69 12.81Q68.89 12.97 69.19 13.18Q69.50 13.38 69.93 13.55Q70.36 13.72 70.98 13.72L70.98 13.72Q71.50 13.72 71.90 13.57Q72.31 13.43 72.59 13.17Q72.87 12.91 73.02 12.55Q73.17 12.20 73.17 11.75L73.17 11.75Q73.17 11.27 72.95 10.95Q72.73 10.64 72.37 10.43Q72.01 10.22 71.55 10.08Q71.09 9.93 70.60 9.78Q70.12 9.62 69.66 9.42Q69.20 9.22 68.84 8.89Q68.48 8.57 68.26 8.09Q68.03 7.61 68.03 6.89L68.03 6.89Q68.03 6.32 68.26 5.79Q68.48 5.26 68.90 4.85Q69.32 4.43 69.94 4.19Q70.55 3.94 71.36 3.94L71.36 3.94Q72.26 3.94 73.00 4.22Q73.74 4.51 74.30 5.05L74.30 5.05ZM90.10 4.06L90.10 14.80L88.64 14.80L88.64 9.91L82.85 9.91L82.85 14.80L81.39 14.80L81.39 4.06L82.85 4.06L82.85 8.85L88.64 8.85L88.64 4.06L90.10 4.06ZM107.78 14.80L104.42 4.06L105.63 4.06Q105.83 4.06 105.95 4.15Q106.08 4.25 106.13 4.40L106.13 4.40L108.35 11.87Q108.41 12.07 108.46 12.31Q108.50 12.54 108.55 12.79L108.55 12.79Q108.60 12.54 108.65 12.30Q108.71 12.07 108.77 11.87L108.77 11.87L111.30 4.40Q111.35 4.28 111.48 4.17Q111.61 4.06 111.80 4.06L111.80 4.06L112.22 4.06Q112.41 4.06 112.54 4.15Q112.66 4.25 112.71 4.40L112.71 4.40L115.22 11.87Q115.36 12.26 115.46 12.77L115.46 12.77Q115.51 12.52 115.55 12.29Q115.58 12.07 115.64 11.87L115.64 11.87L117.87 4.40Q117.91 4.27 118.04 4.16Q118.17 4.06 118.36 4.06L118.36 4.06L119.49 4.06L116.14 14.80L114.83 14.80L112.11 6.61Q112.03 6.38 111.96 6.07L111.96 6.07Q111.92 6.22 111.89 6.36Q111.86 6.49 111.82 6.61L111.82 6.61L109.08 14.80L107.78 14.80ZM127.63 4.06L127.63 14.80L126.18 14.80L126.18 4.06L127.63 4.06ZM134.42 4.06L142.83 4.06L142.83 5.28L139.36 5.28L139.36 14.80L137.91 14.80L137.91 5.28L134.42 5.28L134.42 4.06ZM158.08 4.06L158.08 14.80L156.62 14.80L156.62 9.91L150.83 9.91L150.83 14.80L149.36 14.80L149.36 4.06L150.83 4.06L150.83 8.85L156.62 8.85L156.62 4.06L158.08 4.06ZM175.69 9.43L175.69 9.43Q175.69 10.64 175.30 11.65Q174.92 12.66 174.22 13.39Q173.53 14.12 172.55 14.52Q171.57 14.92 170.38 14.92L170.38 14.92Q169.20 14.92 168.22 14.52Q167.25 14.12 166.55 13.39Q165.85 12.66 165.47 11.65Q165.09 10.64 165.09 9.43L165.09 9.43Q165.09 8.23 165.47 7.22Q165.85 6.21 166.55 5.48Q167.25 4.75 168.22 4.34Q169.20 3.94 170.38 3.94L170.38 3.94Q171.57 3.94 172.55 4.34Q173.53 4.75 174.22 5.48Q174.92 6.21 175.30 7.22Q175.69 8.23 175.69 9.43ZM174.19 9.43L174.19 9.43Q174.19 8.45 173.92 7.66Q173.65 6.87 173.16 6.33Q172.66 5.78 171.96 5.49Q171.25 5.20 170.38 5.20L170.38 5.20Q169.52 5.20 168.82 5.49Q168.11 5.78 167.61 6.33Q167.11 6.87 166.84 7.66Q166.57 8.45 166.57 9.43L166.57 9.43Q166.57 10.43 166.84 11.21Q167.11 11.99 167.61 12.54Q168.11 13.08 168.82 13.37Q169.52 13.66 170.38 13.66L170.38 13.66Q171.25 13.66 171.96 13.37Q172.66 13.08 173.16 12.54Q173.65 11.99 173.92 11.21Q174.19 10.43 174.19 9.43ZM186.85 13.65L186.85 13.65Q187.52 13.65 188.04 13.43Q188.57 13.20 188.93 12.79Q189.30 12.39 189.49 11.83Q189.68 11.27 189.68 10.59L189.68 10.59L189.68 4.06L191.13 4.06L191.13 10.59Q191.13 11.52 190.83 12.31Q190.53 13.11 189.98 13.69Q189.43 14.27 188.64 14.60Q187.84 14.93 186.85 14.93L186.85 14.93Q185.86 14.93 185.07 14.60Q184.27 14.27 183.72 13.69Q183.16 13.11 182.87 12.31Q182.57 11.52 182.57 10.59L182.57 10.59L182.57 4.06L184.02 4.06L184.02 10.58Q184.02 11.26 184.21 11.82Q184.40 12.38 184.76 12.79Q185.13 13.19 185.66 13.42Q186.18 13.65 186.85 13.65ZM197.53 4.06L205.94 4.06L205.94 5.28L202.47 5.28L202.47 14.80L201.02 14.80L201.02 5.28L197.53 5.28L197.53 4.06ZM220.37 4.06L226.99 4.06L226.99 5.24L221.83 5.24L221.83 9L226.24 9L226.24 10.18L221.83 10.18L221.83 14.80L220.37 14.80L220.37 4.06ZM233.86 4.06L240.48 4.06L240.48 5.24L235.32 5.24L235.32 8.81L239.50 8.81L239.50 9.95L235.32 9.95L235.32 13.62L240.48 13.62L240.48 14.80L233.86 14.80L233.86 4.06ZM252.12 4.06L256.42 14.80L255.29 14.80Q255.10 14.80 254.98 14.71Q254.86 14.61 254.80 14.46L254.80 14.46L253.79 11.87L248.97 11.87L247.96 14.46Q247.91 14.59 247.78 14.70Q247.66 14.80 247.47 14.80L247.47 14.80L246.34 14.80L250.64 4.06L252.12 4.06ZM251.06 6.45L249.37 10.81L253.39 10.81L251.70 6.44Q251.53 6.04 251.38 5.43L251.38 5.43Q251.29 5.74 251.22 6.00Q251.14 6.26 251.06 6.45L251.06 6.45ZM265.47 10.32L264.37 10.32L264.37 14.80L262.92 14.80L262.92 4.06L265.96 4.06Q266.98 4.06 267.72 4.26Q268.47 4.47 268.95 4.86Q269.43 5.25 269.67 5.80Q269.90 6.35 269.90 7.04L269.90 7.04Q269.90 7.61 269.72 8.10Q269.54 8.59 269.20 8.99Q268.86 9.38 268.37 9.66Q267.87 9.94 267.25 10.08L267.25 10.08Q267.52 10.24 267.73 10.54L267.73 10.54L270.87 14.80L269.58 14.80Q269.18 14.80 268.99 14.50L268.99 14.50L266.20 10.66Q266.07 10.48 265.92 10.40Q265.77 10.32 265.47 10.32L265.47 10.32ZM264.37 5.21L264.37 9.26L265.89 9.26Q266.53 9.26 267.02 9.11Q267.50 8.96 267.83 8.67Q268.15 8.39 268.32 8.00Q268.48 7.61 268.48 7.14L268.48 7.14Q268.48 6.18 267.85 5.69Q267.21 5.21 265.96 5.21L265.96 5.21L264.37 5.21Z" transform="translate(0, 0)"></path></g></svg> <svg y="450.60679626464844" viewBox="2.319999933242798 11.869999885559082 752.0399780273438 30.700000762939453" x="24.999997558593748" height="30.700000762939453" width="752.0399780273438" style="overflow: visible;"><g fill="#AB2D2D" fill-opacity="1" style=""><path d="M5.63 11.87L9.63 11.87L9.63 41.97L5.63 41.97L5.63 11.87ZM9.50 40.46L21.16 40.46L21.50 41.97L9.50 41.97L9.50 40.46ZM23.52 34.40L23.95 34.40L21.63 41.97L14.06 41.97L15.61 40.46Q17.85 40.46 19.35 39.71Q20.86 38.96 21.84 37.58Q22.83 36.21 23.52 34.40L23.52 34.40ZM5.63 38.83L5.76 38.83L5.76 41.97L2.32 41.97L2.32 41.54Q2.32 41.54 2.60 41.54Q2.88 41.54 2.88 41.54L2.88 41.54Q4.00 41.54 4.79 40.74Q5.59 39.95 5.63 38.83L5.63 38.83ZM5.76 11.87L5.76 15.01L5.63 15.01Q5.59 13.89 4.79 13.09Q4.00 12.30 2.88 12.30L2.88 12.30Q2.88 12.30 2.60 12.30Q2.32 12.30 2.32 12.30L2.32 12.30L2.32 11.87L5.76 11.87ZM9.63 15.01L9.50 15.01L9.50 11.87L12.94 11.87L12.94 12.30Q12.90 12.30 12.64 12.30Q12.38 12.30 12.38 12.30L12.38 12.30Q11.27 12.30 10.47 13.09Q9.68 13.89 9.63 15.01L9.63 15.01ZM36.36 16.17L40.23 16.17L40.23 41.97L36.36 41.97L36.36 16.17ZM36.36 39.22L36.49 39.22L36.49 41.97L33.00 41.97L33.00 41.54Q33.00 41.54 33.28 41.54Q33.56 41.54 33.61 41.54L33.61 41.54Q34.72 41.54 35.52 40.85Q36.31 40.16 36.36 39.22L36.36 39.22ZM40.10 41.97L40.10 39.22L40.23 39.22Q40.27 40.16 41.07 40.85Q41.86 41.54 43.02 41.54L43.02 41.54Q43.02 41.54 43.28 41.54Q43.54 41.54 43.54 41.54L43.54 41.54L43.58 41.97L40.10 41.97ZM40.23 18.92L40.10 18.92L40.10 16.17L43.58 16.17L43.54 16.60Q43.54 16.60 43.28 16.60Q43.02 16.60 43.02 16.60L43.02 16.60Q41.86 16.60 41.07 17.26Q40.27 17.93 40.23 18.92L40.23 18.92ZM36.49 16.17L36.49 18.92L36.36 18.92Q36.31 17.93 35.52 17.26Q34.72 16.60 33.56 16.60L33.56 16.60Q33.56 16.60 33.28 16.60Q33.00 16.60 33.00 16.60L33.00 16.60L33.00 16.17L36.49 16.17ZM62.22 16.30L66.18 16.30L66.18 41.97L62.22 41.97L62.22 16.30ZM52.16 16.13L76.24 16.13L76.24 17.54L52.16 17.54L52.16 16.13ZM73.02 17.46L76.24 17.46L76.24 20.94L75.77 20.94L75.77 20.38Q75.77 19.14 75.04 18.36Q74.31 17.59 73.02 17.54L73.02 17.54L73.02 17.46ZM76.24 15.44L76.24 15.44L76.24 16.55L71.51 16.13Q72.33 16.13 73.30 16.02Q74.26 15.91 75.06 15.74Q75.86 15.57 76.24 15.44ZM62.22 39.22L62.31 39.22L62.31 41.97L59.26 41.97L59.26 41.54Q59.30 41.54 59.54 41.54Q59.77 41.54 59.77 41.54L59.77 41.54Q60.76 41.54 61.47 40.85Q62.18 40.16 62.22 39.22L62.22 39.22ZM66.05 41.97L66.05 39.22L66.18 39.22Q66.18 40.16 66.91 40.85Q67.64 41.54 68.63 41.54L68.63 41.54Q68.63 41.54 68.87 41.54Q69.10 41.54 69.10 41.54L69.10 41.54L69.10 41.97L66.05 41.97ZM52.16 17.46L55.39 17.46L55.39 17.54Q54.10 17.59 53.37 18.36Q52.64 19.14 52.64 20.38L52.64 20.38L52.64 20.94L52.16 20.94L52.16 17.46ZM52.16 16.55L52.16 15.44Q52.55 15.57 53.34 15.74Q54.14 15.91 55.11 16.02Q56.08 16.13 56.89 16.13L56.89 16.13L52.16 16.55ZM94.07 16.30L98.02 16.30L98.02 41.97L94.07 41.97L94.07 16.30ZM84.01 16.13L108.09 16.13L108.09 17.54L84.01 17.54L84.01 16.13ZM104.86 17.46L108.09 17.46L108.09 20.94L107.61 20.94L107.61 20.38Q107.61 19.14 106.88 18.36Q106.15 17.59 104.86 17.54L104.86 17.54L104.86 17.46ZM108.09 15.44L108.09 15.44L108.09 16.55L103.36 16.13Q104.17 16.13 105.14 16.02Q106.11 15.91 106.90 15.74Q107.70 15.57 108.09 15.44ZM94.07 39.22L94.15 39.22L94.15 41.97L91.10 41.97L91.10 41.54Q91.14 41.54 91.38 41.54Q91.62 41.54 91.62 41.54L91.62 41.54Q92.61 41.54 93.31 40.85Q94.02 40.16 94.07 39.22L94.07 39.22ZM97.89 41.97L97.89 39.22L98.02 39.22Q98.02 40.16 98.75 40.85Q99.49 41.54 100.47 41.54L100.47 41.54Q100.47 41.54 100.71 41.54Q100.95 41.54 100.95 41.54L100.95 41.54L100.95 41.97L97.89 41.97ZM84.01 17.46L87.23 17.46L87.23 17.54Q85.94 17.59 85.21 18.36Q84.48 19.14 84.48 20.38L84.48 20.38L84.48 20.94L84.01 20.94L84.01 17.46ZM84.01 16.55L84.01 15.44Q84.39 15.57 85.19 15.74Q85.98 15.91 86.95 16.02Q87.92 16.13 88.74 16.13L88.74 16.13L84.01 16.55ZM119.80 16.17L123.72 16.17L123.72 41.97L119.80 41.97L119.80 16.17ZM123.63 40.51L134.77 40.51L135.07 41.97L123.63 41.97L123.63 40.51ZM136.88 35.22L137.31 35.22L135.20 41.97L128.36 41.97L129.78 40.51Q131.80 40.51 133.16 39.84Q134.51 39.17 135.41 37.97Q136.32 36.77 136.88 35.22L136.88 35.22ZM119.80 39.22L119.89 39.22L120.36 41.97L116.79 41.97L116.79 41.54Q116.79 41.54 117.07 41.54Q117.35 41.54 117.40 41.54L117.40 41.54Q118.43 41.54 119.09 40.85Q119.76 40.16 119.80 39.22L119.80 39.22ZM123.72 18.92L123.59 18.92L123.59 16.17L126.73 16.17L126.73 16.60Q126.68 16.60 126.45 16.60Q126.21 16.60 126.21 16.60L126.21 16.60Q125.18 16.60 124.45 17.26Q123.72 17.93 123.72 18.92L123.72 18.92ZM119.89 16.17L119.89 18.92L119.80 18.92Q119.76 17.93 119.05 17.26Q118.34 16.60 117.31 16.60L117.31 16.60Q117.31 16.60 117.05 16.60Q116.79 16.60 116.79 16.60L116.79 16.60L116.79 16.17L119.89 16.17ZM148.21 16.17L152.12 16.17L152.12 41.97L148.21 41.97L148.21 16.17ZM152.03 40.51L163.17 40.51L163.47 41.97L152.03 41.97L152.03 40.51ZM152.03 28.38L161.37 28.38L161.37 29.84L152.03 29.84L152.03 28.38ZM152.03 16.17L163.30 16.17L163.30 17.63L152.03 17.63L152.03 16.17ZM165.28 35.22L165.71 35.22L163.60 41.97L156.76 41.97L158.18 40.51Q160.20 40.51 161.56 39.84Q162.91 39.17 163.82 37.97Q164.72 36.77 165.28 35.22L165.28 35.22ZM158.61 29.76L161.37 29.76L161.37 32.64L160.89 32.64L160.89 32.16Q160.89 31.18 160.31 30.51Q159.73 29.84 158.61 29.84L158.61 29.84L158.61 29.76ZM160.89 25.59L161.37 25.59L161.37 28.47L158.61 28.47L158.61 28.38Q159.73 28.38 160.31 27.69Q160.89 27.00 160.89 26.06L160.89 26.06L160.89 25.59ZM160.12 17.50L163.30 17.50L163.30 21.03L162.87 21.03L162.87 20.47Q162.87 19.22 162.14 18.43Q161.41 17.63 160.12 17.63L160.12 17.63L160.12 17.50ZM163.30 15.48L163.30 15.48L163.30 16.60L158.53 16.17Q159.86 16.17 161.32 15.93Q162.78 15.70 163.30 15.48ZM148.21 39.22L148.29 39.22L148.77 41.97L145.20 41.97L145.20 41.54Q145.20 41.54 145.48 41.54Q145.76 41.54 145.80 41.54L145.80 41.54Q146.83 41.54 147.50 40.85Q148.16 40.16 148.21 39.22L148.21 39.22ZM148.77 16.17L148.29 18.88L148.21 18.88Q148.16 17.89 147.50 17.24Q146.83 16.60 145.80 16.60L145.80 16.60Q145.76 16.60 145.48 16.60Q145.20 16.60 145.20 16.60L145.20 16.60L145.20 16.17L148.77 16.17ZM198.74 11.87L198.74 11.87L204.63 11.87Q206.56 11.87 208.24 12.38Q209.91 12.90 211.10 13.91Q212.28 14.92 212.97 16.43Q213.66 17.93 213.66 19.95L213.66 19.95Q213.66 21.93 212.75 23.80Q211.85 25.67 210.24 26.88Q208.63 28.08 206.43 28.17L206.43 28.17Q207.38 28.51 208.32 29.50Q209.27 30.49 209.96 31.43L209.96 31.43Q209.96 31.48 210.50 32.25Q211.03 33.02 211.85 34.16Q212.67 35.30 213.51 36.42Q214.34 37.54 214.99 38.27L214.99 38.27Q215.85 39.30 216.69 40.01Q217.53 40.72 218.49 41.13Q219.46 41.54 220.66 41.54L220.66 41.54L220.66 41.97L217.66 41.97Q215.59 41.97 214 41.43Q212.41 40.89 211.25 39.97Q210.09 39.04 209.27 37.97L209.27 37.97Q209.10 37.67 208.56 36.85Q208.02 36.03 207.36 34.98Q206.69 33.93 206.05 32.90Q205.40 31.86 204.93 31.11Q204.45 30.36 204.32 30.14L204.32 30.14Q203.59 28.98 202.69 28.14Q201.79 27.30 200.71 27.26L200.71 27.26L200.71 26.83Q200.76 26.83 201.34 26.85Q201.92 26.88 202.69 26.83L202.69 26.83Q203.81 26.79 205.08 26.45Q206.35 26.10 207.40 25.11Q208.45 24.12 208.97 22.19L208.97 22.19Q209.10 21.76 209.16 21.11Q209.23 20.47 209.18 19.78L209.18 19.78Q209.14 16.81 207.70 15.16Q206.26 13.50 203.94 13.42L203.94 13.42Q202.95 13.33 201.87 13.35Q200.80 13.37 200.03 13.37Q199.25 13.37 199.16 13.37L199.16 13.37Q199.16 13.33 199.06 12.96Q198.95 12.60 198.84 12.23Q198.74 11.87 198.74 11.87ZM195.29 11.87L199.29 11.87L199.29 41.97L195.29 41.97L195.29 11.87ZM195.29 38.83L195.42 38.83L195.42 41.97L191.98 41.97L191.98 41.54Q191.98 41.54 192.26 41.54Q192.54 41.54 192.54 41.54L192.54 41.54Q193.66 41.54 194.46 40.74Q195.25 39.95 195.29 38.83L195.29 38.83ZM195.42 11.87L195.42 15.01L195.29 15.01Q195.25 13.89 194.46 13.09Q193.66 12.30 192.54 12.30L192.54 12.30Q192.54 12.30 192.26 12.30Q191.98 12.30 191.98 12.30L191.98 12.30L191.98 11.87L195.42 11.87ZM199.16 41.97L199.16 38.83L199.29 38.83Q199.29 39.95 200.11 40.74Q200.93 41.54 202.05 41.54L202.05 41.54Q202.09 41.54 202.33 41.54Q202.56 41.54 202.56 41.54L202.56 41.54L202.56 41.97L199.16 41.97ZM229.76 16.17L233.67 16.17L233.67 41.97L229.76 41.97L229.76 16.17ZM233.59 40.51L244.72 40.51L245.03 41.97L233.59 41.97L233.59 40.51ZM233.59 28.38L242.92 28.38L242.92 29.84L233.59 29.84L233.59 28.38ZM233.59 16.17L244.85 16.17L244.85 17.63L233.59 17.63L233.59 16.17ZM246.83 35.22L247.26 35.22L245.15 41.97L238.32 41.97L239.74 40.51Q241.76 40.51 243.11 39.84Q244.47 39.17 245.37 37.97Q246.27 36.77 246.83 35.22L246.83 35.22ZM240.17 29.76L242.92 29.76L242.92 32.64L242.45 32.64L242.45 32.16Q242.45 31.18 241.87 30.51Q241.28 29.84 240.17 29.84L240.17 29.84L240.17 29.76ZM242.45 25.59L242.92 25.59L242.92 28.47L240.17 28.47L240.17 28.38Q241.28 28.38 241.87 27.69Q242.45 27.00 242.45 26.06L242.45 26.06L242.45 25.59ZM241.67 17.50L244.85 17.50L244.85 21.03L244.42 21.03L244.42 20.47Q244.42 19.22 243.69 18.43Q242.96 17.63 241.67 17.63L241.67 17.63L241.67 17.50ZM244.85 15.48L244.85 15.48L244.85 16.60L240.08 16.17Q241.41 16.17 242.88 15.93Q244.34 15.70 244.85 15.48ZM229.76 39.22L229.85 39.22L230.32 41.97L226.75 41.97L226.75 41.54Q226.75 41.54 227.03 41.54Q227.31 41.54 227.35 41.54L227.35 41.54Q228.38 41.54 229.05 40.85Q229.72 40.16 229.76 39.22L229.76 39.22ZM230.32 16.17L229.85 18.88L229.76 18.88Q229.72 17.89 229.05 17.24Q228.38 16.60 227.35 16.60L227.35 16.60Q227.31 16.60 227.03 16.60Q226.75 16.60 226.75 16.60L226.75 16.60L226.75 16.17L230.32 16.17ZM260.74 16.17L270.55 16.17Q274.93 16.17 278.09 17.72Q281.25 19.26 282.95 22.17Q284.65 25.07 284.65 29.07L284.65 29.07Q284.65 33.07 282.95 35.95Q281.25 38.83 278.09 40.40Q274.93 41.97 270.55 41.97L270.55 41.97L261.26 41.97L261.17 40.55Q264.27 40.55 266.29 40.55Q268.31 40.55 269.34 40.55Q270.38 40.55 270.38 40.55L270.38 40.55Q275.06 40.55 277.73 37.47Q280.39 34.40 280.39 29.07L280.39 29.07Q280.39 23.74 277.73 20.66Q275.06 17.59 270.38 17.59L270.38 17.59Q270.38 17.59 269.32 17.59Q268.27 17.59 266.12 17.59Q263.97 17.59 260.74 17.59L260.74 17.59L260.74 16.17ZM259.11 16.17L263.07 16.17L263.07 41.97L259.11 41.97L259.11 16.17ZM259.11 39.17L259.24 39.17L259.24 41.97L256.14 41.97L256.14 41.54Q256.14 41.54 256.40 41.54Q256.66 41.54 256.70 41.54L256.70 41.54Q257.69 41.54 258.40 40.83Q259.11 40.12 259.11 39.17L259.11 39.17ZM259.20 16.17L259.20 18.92L259.11 18.92Q259.07 17.93 258.36 17.26Q257.65 16.60 256.66 16.60L256.66 16.60Q256.66 16.60 256.40 16.60Q256.14 16.60 256.14 16.60L256.14 16.60L256.14 16.17L259.20 16.17ZM316.00 11.87L316.00 11.87L321.51 11.87Q324.56 11.87 326.77 12.73Q328.99 13.59 330.17 15.20Q331.35 16.81 331.35 19.09L331.35 19.09Q331.35 20.98 330.64 22.34Q329.93 23.69 328.82 24.49Q327.70 25.28 326.45 25.59L326.45 25.59Q328.69 25.89 330.39 27.00Q332.08 28.12 332.99 29.84Q333.89 31.56 333.89 33.80L333.89 33.80Q333.89 36.29 332.62 38.14Q331.35 39.99 328.94 40.98Q326.54 41.97 323.18 41.97L323.18 41.97L318.58 41.97Q318.58 41.97 318.60 41.54Q318.63 41.11 318.63 40.70Q318.63 40.29 318.63 40.29L318.63 40.29L322.45 40.29Q324.60 40.29 326.13 39.52Q327.65 38.74 328.47 37.20Q329.29 35.65 329.29 33.41L329.29 33.41Q329.29 31.18 328.47 29.73Q327.65 28.29 326.37 27.50Q325.07 26.70 323.51 26.38Q321.94 26.06 320.43 26.06L320.43 26.06L320.43 25.67Q321.42 25.67 322.54 25.41Q323.66 25.16 324.67 24.51Q325.68 23.87 326.30 22.64Q326.92 21.41 326.92 19.48L326.92 19.48Q326.92 17.46 326.24 16.10Q325.55 14.75 324.19 14.08Q322.84 13.42 320.90 13.42L320.90 13.42L316.43 13.42Q316.43 13.37 316.32 13.01Q316.22 12.64 316.11 12.26Q316.00 11.87 316.00 11.87ZM314.97 11.87L318.97 11.87L318.97 41.97L314.97 41.97L314.97 11.87ZM314.97 38.83L315.10 38.83L315.10 41.97L311.66 41.97L311.70 41.54Q311.79 41.54 311.98 41.54Q312.18 41.54 312.22 41.54L312.22 41.54Q313.34 41.54 314.15 40.74Q314.97 39.95 314.97 38.83L314.97 38.83ZM315.10 11.87L315.10 15.01L314.97 15.01Q314.97 13.89 314.15 13.09Q313.34 12.30 312.22 12.30L312.22 12.30Q312.18 12.30 311.98 12.30Q311.79 12.30 311.70 12.30L311.70 12.30L311.66 11.87L315.10 11.87ZM346.86 16.17L350.73 16.17L350.73 41.97L346.86 41.97L346.86 16.17ZM346.86 39.22L346.99 39.22L346.99 41.97L343.50 41.97L343.50 41.54Q343.50 41.54 343.78 41.54Q344.06 41.54 344.10 41.54L344.10 41.54Q345.22 41.54 346.02 40.85Q346.81 40.16 346.86 39.22L346.86 39.22ZM350.60 41.97L350.60 39.22L350.73 39.22Q350.77 40.16 351.56 40.85Q352.36 41.54 353.52 41.54L353.52 41.54Q353.52 41.54 353.78 41.54Q354.04 41.54 354.04 41.54L354.04 41.54L354.08 41.97L350.60 41.97ZM350.73 18.92L350.60 18.92L350.60 16.17L354.08 16.17L354.04 16.60Q354.04 16.60 353.78 16.60Q353.52 16.60 353.52 16.60L353.52 16.60Q352.36 16.60 351.56 17.26Q350.77 17.93 350.73 18.92L350.73 18.92ZM346.99 16.17L346.99 18.92L346.86 18.92Q346.81 17.93 346.02 17.26Q345.22 16.60 344.06 16.60L344.06 16.60Q344.06 16.60 343.78 16.60Q343.50 16.60 343.50 16.60L343.50 16.60L343.50 16.17L346.99 16.17ZM370.53 16.17L370.53 16.17L375.77 16.17Q377.71 16.17 379.34 16.60Q380.98 17.03 382.18 17.91Q383.39 18.79 384.05 20.10Q384.72 21.41 384.72 23.18L384.72 23.18Q384.72 24.85 383.94 26.38Q383.17 27.91 381.71 28.94Q380.25 29.97 378.27 30.23L378.27 30.23Q379.17 30.53 380.20 31.61Q381.24 32.68 381.88 33.67L381.88 33.67Q381.97 33.76 382.48 34.51Q383.00 35.26 383.79 36.31Q384.59 37.37 385.41 38.40L385.41 38.40Q386.31 39.43 387.02 40.12Q387.73 40.81 388.55 41.17Q389.36 41.54 390.44 41.54L390.44 41.54L390.44 41.97L388.37 41.97Q386.01 41.97 384.46 41.45Q382.91 40.94 381.88 40.03Q380.85 39.13 380.07 38.06L380.07 38.06Q379.82 37.75 379.26 36.89Q378.70 36.03 378.08 35.07Q377.45 34.10 376.94 33.28Q376.42 32.47 376.29 32.21L376.29 32.21Q375.52 31.00 374.55 30.21Q373.58 29.41 372.55 29.41L372.55 29.41L372.55 28.98Q372.55 28.98 373.11 29.00Q373.67 29.03 374.53 28.98L374.53 28.98Q375.65 28.94 376.74 28.75Q377.84 28.55 378.78 27.71Q379.73 26.88 380.25 25.07L380.25 25.07Q380.38 24.68 380.46 24.10Q380.55 23.52 380.50 22.83L380.50 22.83Q380.42 21.50 379.99 20.55Q379.56 19.61 378.81 18.98Q378.05 18.36 377.13 18.04Q376.20 17.72 375.13 17.67L375.13 17.67Q373.54 17.63 372.31 17.65Q371.09 17.67 370.96 17.63L370.96 17.63Q370.96 17.63 370.85 17.26Q370.74 16.90 370.64 16.53Q370.53 16.17 370.53 16.17ZM367.13 16.17L371.04 16.17L371.04 41.97L367.13 41.97L367.13 16.17ZM367.18 39.22L367.26 39.22L367.65 41.97L364.16 41.97L364.16 41.54Q364.21 41.54 364.47 41.54Q364.72 41.54 364.77 41.54L364.77 41.54Q365.76 41.54 366.44 40.85Q367.13 40.16 367.18 39.22L367.18 39.22ZM367.65 16.17L367.26 18.88L367.18 18.88Q367.13 17.89 366.44 17.24Q365.76 16.60 364.77 16.60L364.77 16.60Q364.72 16.60 364.47 16.60Q364.21 16.60 364.16 16.60L364.16 16.60L364.16 16.17L367.65 16.17ZM370.49 41.97L370.92 39.22L371.04 39.22Q371.04 40.21 371.75 40.87Q372.46 41.54 373.45 41.54L373.45 41.54Q373.45 41.54 373.69 41.54Q373.93 41.54 373.97 41.54L373.97 41.54L374.01 41.97L370.49 41.97ZM402.07 16.17L411.88 16.17Q416.26 16.17 419.42 17.72Q422.58 19.26 424.28 22.17Q425.98 25.07 425.98 29.07L425.98 29.07Q425.98 33.07 424.28 35.95Q422.58 38.83 419.42 40.40Q416.26 41.97 411.88 41.97L411.88 41.97L402.59 41.97L402.50 40.55Q405.60 40.55 407.62 40.55Q409.64 40.55 410.67 40.55Q411.70 40.55 411.70 40.55L411.70 40.55Q416.39 40.55 419.06 37.47Q421.72 34.40 421.72 29.07L421.72 29.07Q421.72 23.74 419.06 20.66Q416.39 17.59 411.70 17.59L411.70 17.59Q411.70 17.59 410.65 17.59Q409.60 17.59 407.45 17.59Q405.30 17.59 402.07 17.59L402.07 17.59L402.07 16.17ZM400.44 16.17L404.39 16.17L404.39 41.97L400.44 41.97L400.44 16.17ZM400.44 39.17L400.57 39.17L400.57 41.97L397.47 41.97L397.47 41.54Q397.47 41.54 397.73 41.54Q397.99 41.54 398.03 41.54L398.03 41.54Q399.02 41.54 399.73 40.83Q400.44 40.12 400.44 39.17L400.44 39.17ZM400.52 16.17L400.52 18.92L400.44 18.92Q400.39 17.93 399.68 17.26Q398.98 16.60 397.99 16.60L397.99 16.60Q397.99 16.60 397.73 16.60Q397.47 16.60 397.47 16.60L397.47 16.60L397.47 16.17L400.52 16.17ZM459.78 11.87L459.78 11.87L465.28 11.87Q468.38 11.87 470.47 12.88Q472.55 13.89 473.65 15.76Q474.74 17.63 474.74 20.17L474.74 20.17Q474.79 22.19 473.99 23.84Q473.20 25.50 471.86 26.62Q470.53 27.74 468.83 28.27Q467.13 28.81 465.33 28.64Q463.52 28.47 461.80 27.48L461.80 27.48L461.80 27.05Q461.80 27.05 462.47 27.11Q463.13 27.18 464.19 27.09Q465.24 27.00 466.38 26.57Q467.52 26.14 468.53 25.11Q469.54 24.08 470.06 22.32L470.06 22.32Q470.19 21.80 470.27 21.09Q470.36 20.38 470.31 19.74L470.31 19.74Q470.27 16.86 468.79 15.09Q467.31 13.33 464.60 13.33L464.60 13.33L460.21 13.33Q460.21 13.33 460.10 12.96Q460.00 12.60 459.89 12.23Q459.78 11.87 459.78 11.87ZM456.34 11.87L460.34 11.87L460.34 41.97L456.34 41.97L456.34 11.87ZM456.34 38.83L456.47 38.83L456.47 41.97L453.03 41.97L453.03 41.54Q453.03 41.54 453.31 41.54Q453.59 41.54 453.59 41.54L453.59 41.54Q454.71 41.54 455.50 40.74Q456.30 39.95 456.34 38.83L456.34 38.83ZM456.47 11.87L456.47 15.01L456.34 15.01Q456.34 13.89 455.52 13.09Q454.71 12.30 453.59 12.30L453.59 12.30Q453.59 12.30 453.33 12.30Q453.07 12.30 453.07 12.30L453.07 12.30L453.03 11.87L456.47 11.87ZM460.21 41.97L460.21 38.83L460.34 38.83Q460.38 39.95 461.18 40.74Q461.97 41.54 463.09 41.54L463.09 41.54Q463.13 41.54 463.39 41.54Q463.65 41.54 463.65 41.54L463.65 41.54L463.65 41.97L460.21 41.97ZM486.81 16.17L490.68 16.17L490.68 32.42Q490.68 36.51 492.72 38.85Q494.76 41.19 498.29 41.19L498.29 41.19Q502.16 41.19 504.35 38.98Q506.54 36.77 506.54 32.90L506.54 32.90L506.54 16.17L508.82 16.17L508.82 32.81Q508.82 37.32 505.96 39.95Q503.10 42.57 498.07 42.57L498.07 42.57Q492.70 42.57 489.75 39.97Q486.81 37.37 486.81 32.85L486.81 32.85L486.81 16.17ZM484.14 16.17L486.89 16.17L486.89 18.45L486.81 18.45Q486.76 17.63 486.18 17.11Q485.60 16.60 484.74 16.60L484.74 16.60Q484.74 16.60 484.44 16.60Q484.14 16.60 484.14 16.60L484.14 16.60L484.14 16.17ZM490.59 16.17L493.34 16.17L493.34 16.60Q493.34 16.60 493.02 16.60Q492.70 16.60 492.70 16.60L492.70 16.60Q491.88 16.60 491.28 17.11Q490.68 17.63 490.68 18.45L490.68 18.45L490.59 18.45L490.59 16.17ZM503.88 16.17L506.63 16.17L506.63 18.45L506.54 18.45Q506.54 17.63 505.94 17.11Q505.34 16.60 504.52 16.60L504.52 16.60Q504.52 16.60 504.20 16.60Q503.88 16.60 503.88 16.60L503.88 16.60L503.88 16.17ZM508.74 16.17L511.45 16.17L511.45 16.60Q511.45 16.60 511.14 16.60Q510.84 16.60 510.84 16.60L510.84 16.60Q510.03 16.60 509.42 17.11Q508.82 17.63 508.82 18.45L508.82 18.45L508.74 18.45L508.74 16.17ZM524.80 16.17L524.80 16.17L530.56 16.17Q531.89 16.17 533.49 16.40Q535.08 16.64 536.50 17.29Q537.91 17.93 538.84 19.22Q539.76 20.51 539.76 22.62L539.76 22.62Q539.76 23.99 539.08 25.13Q538.39 26.27 537.31 26.98Q536.24 27.69 535.03 27.95L535.03 27.95Q537.05 28.12 538.64 29.05Q540.24 29.97 541.16 31.43Q542.09 32.90 542.09 34.70L542.09 34.70Q542.09 36.77 541.23 38.16Q540.37 39.56 538.90 40.40Q537.44 41.24 535.68 41.60Q533.91 41.97 532.15 41.97L532.15 41.97L527.34 41.97Q527.34 41.97 527.36 41.60Q527.38 41.24 527.38 40.89Q527.38 40.55 527.38 40.55L527.38 40.55L531.51 40.55Q533.27 40.55 534.67 39.93Q536.07 39.30 536.90 37.97Q537.74 36.64 537.74 34.57L537.74 34.57Q537.74 32.68 536.99 31.45Q536.24 30.23 534.99 29.56Q533.74 28.90 532.20 28.62Q530.65 28.34 529.01 28.34L529.01 28.34L529.01 27.91Q530.13 27.91 531.29 27.71Q532.45 27.52 533.42 26.96Q534.39 26.40 535.01 25.39Q535.63 24.38 535.63 22.75L535.63 22.75Q535.63 20.00 534.13 18.79Q532.63 17.59 530.09 17.59L530.09 17.59L525.19 17.59Q525.19 17.54 525.08 17.20Q524.97 16.86 524.88 16.51Q524.80 16.17 524.80 16.17ZM523.85 16.17L527.72 16.17L527.72 41.97L523.85 41.97L523.85 16.17ZM523.85 39.22L523.98 39.22L523.98 41.97L520.89 41.97L520.89 41.54Q520.89 41.54 521.12 41.54Q521.36 41.54 521.36 41.54L521.36 41.54Q522.48 41.54 523.16 40.85Q523.85 40.16 523.85 39.22L523.85 39.22ZM523.98 16.17L523.98 18.92L523.85 18.92Q523.85 17.89 523.16 17.24Q522.48 16.60 521.36 16.60L521.36 16.60Q521.36 16.60 521.12 16.60Q520.89 16.60 520.89 16.60L520.89 16.60L520.89 16.17L523.98 16.17ZM554.84 16.17L558.75 16.17L558.75 41.97L554.84 41.97L554.84 16.17ZM558.66 40.51L569.80 40.51L570.10 41.97L558.66 41.97L558.66 40.51ZM571.91 35.22L572.34 35.22L570.23 41.97L563.39 41.97L564.81 40.51Q566.83 40.51 568.19 39.84Q569.54 39.17 570.44 37.97Q571.35 36.77 571.91 35.22L571.91 35.22ZM554.84 39.22L554.92 39.22L555.39 41.97L551.83 41.97L551.83 41.54Q551.83 41.54 552.11 41.54Q552.38 41.54 552.43 41.54L552.43 41.54Q553.46 41.54 554.13 40.85Q554.79 40.16 554.84 39.22L554.84 39.22ZM558.75 18.92L558.62 18.92L558.62 16.17L561.76 16.17L561.76 16.60Q561.72 16.60 561.48 16.60Q561.24 16.60 561.24 16.60L561.24 16.60Q560.21 16.60 559.48 17.26Q558.75 17.93 558.75 18.92L558.75 18.92ZM554.92 16.17L554.92 18.92L554.84 18.92Q554.79 17.93 554.08 17.26Q553.37 16.60 552.34 16.60L552.34 16.60Q552.34 16.60 552.08 16.60Q551.83 16.60 551.83 16.60L551.83 16.60L551.83 16.17L554.92 16.17ZM583.58 16.17L587.45 16.17L587.45 41.97L583.58 41.97L583.58 16.17ZM583.58 39.22L583.71 39.22L583.71 41.97L580.23 41.97L580.23 41.54Q580.23 41.54 580.51 41.54Q580.79 41.54 580.83 41.54L580.83 41.54Q581.95 41.54 582.74 40.85Q583.54 40.16 583.58 39.22L583.58 39.22ZM587.32 41.97L587.32 39.22L587.45 39.22Q587.50 40.16 588.29 40.85Q589.09 41.54 590.25 41.54L590.25 41.54Q590.25 41.54 590.51 41.54Q590.76 41.54 590.76 41.54L590.76 41.54L590.81 41.97L587.32 41.97ZM587.45 18.92L587.32 18.92L587.32 16.17L590.81 16.17L590.76 16.60Q590.76 16.60 590.51 16.60Q590.25 16.60 590.25 16.60L590.25 16.60Q589.09 16.60 588.29 17.26Q587.50 17.93 587.45 18.92L587.45 18.92ZM583.71 16.17L583.71 18.92L583.58 18.92Q583.54 17.93 582.74 17.26Q581.95 16.60 580.79 16.60L580.79 16.60Q580.79 16.60 580.51 16.60Q580.23 16.60 580.23 16.60L580.23 16.60L580.23 16.17L583.71 16.17ZM608.93 15.57L608.93 15.57Q610.05 15.57 611.06 15.65Q612.07 15.74 612.91 15.85Q613.75 15.95 614.39 16.10Q615.04 16.25 615.38 16.38L615.38 16.38L615.25 20.98L614.78 20.98Q614.78 19.14 613.51 18.08Q612.24 17.03 609.71 17.03L609.71 17.03Q607.56 17.03 606.12 18.12Q604.68 19.22 604.68 20.86L604.68 20.86Q604.68 21.50 604.89 22.08Q605.11 22.66 605.58 23.20Q606.05 23.74 606.74 24.25L606.74 24.25L614.78 30.14Q616.03 30.96 616.67 32.36Q617.32 33.76 617.27 35.35L617.27 35.35Q617.27 37.41 616.16 39.07Q615.04 40.72 613.15 41.65Q611.25 42.57 608.85 42.57L608.85 42.57Q607.38 42.57 605.90 42.31Q604.42 42.05 603.21 41.58Q602.01 41.11 601.24 40.46L601.24 40.46Q601.06 39.78 601.06 38.74Q601.06 37.71 601.28 36.61Q601.49 35.52 601.84 34.70L601.84 34.70L602.31 34.70Q602.14 36.64 602.91 38.10Q603.69 39.56 605.17 40.36Q606.65 41.15 608.67 41.11L608.67 41.11Q611.30 41.07 612.74 39.84Q614.18 38.61 614.18 36.68L614.18 36.68Q614.18 35.60 613.68 34.74Q613.19 33.88 612.07 33.07L612.07 33.07L604.29 27.39Q602.78 26.32 602.16 24.88Q601.54 23.44 601.62 21.93L601.62 21.93Q601.71 20.08 602.68 18.64Q603.64 17.20 605.28 16.38Q606.91 15.57 608.93 15.57ZM611.81 15.95L615.38 15.95L615.38 16.73L611.81 16.73L611.81 15.95ZM648.64 16.17L652.56 16.17L652.56 41.97L648.64 41.97L648.64 16.17ZM630.41 16.17L634.28 16.17L634.28 41.97L630.41 41.97L630.41 16.17ZM633.85 28.47L649.07 28.47L649.07 29.93L633.85 29.93L633.85 28.47ZM630.41 39.22L630.54 39.22L630.54 41.97L627.45 41.97L627.45 41.54Q627.45 41.54 627.70 41.54Q627.96 41.54 627.96 41.54L627.96 41.54Q628.95 41.54 629.66 40.85Q630.37 40.16 630.41 39.22L630.41 39.22ZM634.20 41.97L634.20 39.22L634.28 39.22Q634.33 40.16 635.04 40.85Q635.75 41.54 636.73 41.54L636.73 41.54Q636.73 41.54 636.99 41.54Q637.25 41.54 637.25 41.54L637.25 41.54L637.25 41.97L634.20 41.97ZM634.28 18.92L634.20 18.92L634.20 16.17L637.25 16.17L637.25 16.60Q637.25 16.60 636.99 16.60Q636.73 16.60 636.73 16.60L636.73 16.60Q635.75 16.60 635.04 17.26Q634.33 17.93 634.28 18.92L634.28 18.92ZM630.54 16.17L630.54 18.92L630.41 18.92Q630.37 17.93 629.66 17.26Q628.95 16.60 627.96 16.60L627.96 16.60Q627.96 16.60 627.70 16.60Q627.45 16.60 627.45 16.60L627.45 16.60L627.45 16.17L630.54 16.17ZM648.64 39.22L648.77 39.22L648.77 41.97L645.72 41.97L645.72 41.54Q645.72 41.54 645.96 41.54Q646.19 41.54 646.19 41.54L646.19 41.54Q647.23 41.54 647.91 40.85Q648.60 40.16 648.64 39.22L648.64 39.22ZM652.43 41.97L652.43 39.22L652.56 39.22Q652.60 40.16 653.29 40.85Q653.98 41.54 655.01 41.54L655.01 41.54Q655.01 41.54 655.25 41.54Q655.48 41.54 655.48 41.54L655.48 41.54L655.48 41.97L652.43 41.97ZM652.56 18.92L652.43 18.92L652.43 16.17L655.52 16.17L655.52 16.60Q655.52 16.60 655.27 16.60Q655.01 16.60 655.01 16.60L655.01 16.60Q653.98 16.60 653.29 17.26Q652.60 17.93 652.56 18.92L652.56 18.92ZM648.77 16.17L648.77 18.92L648.64 18.92Q648.60 17.93 647.91 17.26Q647.23 16.60 646.19 16.60L646.19 16.60Q646.19 16.60 645.96 16.60Q645.72 16.60 645.72 16.60L645.72 16.60L645.72 16.17L648.77 16.17ZM668.88 16.17L672.75 16.17L672.75 41.97L668.88 41.97L668.88 16.17ZM668.88 39.22L669.01 39.22L669.01 41.97L665.52 41.97L665.52 41.54Q665.52 41.54 665.80 41.54Q666.08 41.54 666.13 41.54L666.13 41.54Q667.24 41.54 668.04 40.85Q668.83 40.16 668.88 39.22L668.88 39.22ZM672.62 41.97L672.62 39.22L672.75 39.22Q672.79 40.16 673.59 40.85Q674.38 41.54 675.54 41.54L675.54 41.54Q675.54 41.54 675.80 41.54Q676.06 41.54 676.06 41.54L676.06 41.54L676.10 41.97L672.62 41.97ZM672.75 18.92L672.62 18.92L672.62 16.17L676.10 16.17L676.06 16.60Q676.06 16.60 675.80 16.60Q675.54 16.60 675.54 16.60L675.54 16.60Q674.38 16.60 673.59 17.26Q672.79 17.93 672.75 18.92L672.75 18.92ZM669.01 16.17L669.01 18.92L668.88 18.92Q668.83 17.93 668.04 17.26Q667.24 16.60 666.08 16.60L666.08 16.60Q666.08 16.60 665.80 16.60Q665.52 16.60 665.52 16.60L665.52 16.60L665.52 16.17L669.01 16.17ZM688.98 20.12L688.51 15.52L712.80 37.88L713.23 42.57L688.98 20.12ZM688.51 39.30L688.64 39.30L688.64 41.97L685.41 41.97L685.41 41.54Q685.41 41.54 685.78 41.54Q686.14 41.54 686.14 41.54L686.14 41.54Q687.13 41.54 687.82 40.89Q688.51 40.25 688.51 39.30L688.51 39.30ZM691.65 39.30L691.78 39.30Q691.78 40.25 692.49 40.89Q693.20 41.54 694.14 41.54L694.14 41.54Q694.14 41.54 694.51 41.54Q694.87 41.54 694.87 41.54L694.87 41.54L694.87 41.97L691.65 41.97L691.65 39.30ZM688.12 15.52L688.51 15.52L691.73 19.31L691.78 41.97L688.51 41.97L688.51 20.77Q688.51 18.58 688.32 17.05Q688.12 15.52 688.12 15.52L688.12 15.52ZM710.01 16.17L713.23 16.17L713.23 37.20Q713.23 38.61 713.32 39.84Q713.41 41.07 713.51 41.82Q713.62 42.57 713.62 42.57L713.62 42.57L713.23 42.57L710.01 38.74L710.01 16.17ZM713.23 18.83L713.10 18.83L713.10 16.17L716.33 16.17L716.33 16.60Q716.33 16.60 715.96 16.60Q715.60 16.60 715.60 16.60L715.60 16.60Q714.65 16.60 713.94 17.24Q713.23 17.89 713.23 18.83L713.23 18.83ZM710.09 18.83L710.01 18.83Q709.97 17.89 709.28 17.24Q708.59 16.60 707.60 16.60L707.60 16.60Q707.60 16.60 707.24 16.60Q706.87 16.60 706.87 16.60L706.87 16.60L706.87 16.17L710.09 16.17L710.09 18.83ZM739.49 15.57L739.49 15.57Q741.46 15.57 743.29 15.85Q745.12 16.13 746.75 16.66Q748.39 17.20 749.72 17.97L749.72 17.97L750.37 24.30L749.98 24.30Q749.38 21.72 748.02 20.10Q746.67 18.49 744.65 17.74Q742.63 16.99 739.92 16.99L739.92 16.99Q736.73 16.99 734.39 18.45Q732.05 19.91 730.78 22.64Q729.51 25.37 729.51 29.15L729.51 29.15Q729.51 32.81 730.76 35.52Q732.00 38.23 734.28 39.69Q736.56 41.15 739.62 41.15L739.62 41.15Q741.25 41.15 742.75 40.74Q744.26 40.33 745.59 39.47Q746.93 38.61 747.96 37.32L747.96 37.32L748.00 31.78Q748.04 30.96 747.51 30.53Q746.97 30.10 746.07 30.10L746.07 30.10L745.46 30.10L745.46 29.67L754.36 29.67L754.36 30.10L753.81 30.10Q751.87 30.10 751.87 31.82L751.87 31.82L751.87 37.15Q750.92 38.40 749.14 39.65Q747.36 40.89 744.90 41.73Q742.45 42.57 739.40 42.57L739.40 42.57Q735.14 42.53 731.98 40.89Q728.82 39.26 727.06 36.25Q725.30 33.24 725.30 29.07L725.30 29.07Q725.30 24.85 727.06 21.84Q728.82 18.83 732.00 17.20Q735.19 15.57 739.49 15.57Z" transform="translate(0, 0)"></path></g></svg></svg>